<svg xmlns="http://www.w3.org/2000/svg" width="16" height="16" viewBox="0 0 16 16" fill="none">
<path d="M7.79888 1.87019C7.92652 1.81443 8.07162 1.81443 8.19926 1.87019C10.6785 2.95341 13.0281 4.27758 15.2187 5.81304C15.3772 5.92416 15.4574 6.1168 15.4244 6.30757C15.3915 6.49833 15.2514 6.65294 15.0648 6.70445C14.6081 6.83049 14.1555 6.96623 13.7069 7.1109C11.8862 7.69809 10.1335 8.43692 8.46379 9.31252L8.46161 9.31366C8.3859 9.35337 8.31037 9.39336 8.23501 9.43362C8.08777 9.51229 7.91098 9.51229 7.76375 9.43362C7.68766 9.39297 7.6114 9.3526 7.53497 9.31252C6.70932 8.87956 5.86341 8.48004 4.99902 8.11576V7.96663C4.99902 7.87907 5.04397 7.80136 5.11351 7.75923C6.11692 7.15133 7.15194 6.59043 8.21551 6.07957C8.46443 5.96001 8.56929 5.6613 8.44973 5.41238C8.33017 5.16347 8.03145 5.0586 7.78254 5.17816C6.6897 5.70308 5.62626 6.27939 4.59535 6.90395C4.2931 7.08706 4.08991 7.38676 4.02307 7.72252C3.45312 7.50328 2.87568 7.29907 2.29122 7.11058C1.84267 6.96593 1.38998 6.83047 0.933386 6.70444C0.746773 6.65293 0.606664 6.49833 0.573717 6.30756C0.54077 6.11679 0.620906 5.92415 0.779432 5.81303C2.96999 4.27757 5.31967 2.95341 7.79888 1.87019Z" fill="#9CA3AF"/>
<path d="M8.70627 10.3156C10.3322 9.44687 12.0404 8.71245 13.8162 8.12706C13.9057 9.07027 13.9629 10.0228 13.9865 10.9837C13.9916 11.1898 13.8696 11.3779 13.6793 11.4574C11.7786 12.251 9.9706 13.2227 8.27632 14.3518C8.1084 14.4637 7.88968 14.4637 7.72176 14.3518C6.02747 13.2227 4.21951 12.251 2.31875 11.4574C2.12846 11.3779 2.00646 11.1898 2.01154 10.9837C2.03522 10.0228 2.09236 9.07013 2.18187 8.12685C2.79587 8.32923 3.40179 8.54944 3.99902 8.78685V9.63378C3.70012 9.80669 3.49902 10.1299 3.49902 10.5C3.49902 10.8302 3.65908 11.123 3.90584 11.3051C3.84616 11.5589 3.75784 11.8072 3.64087 12.045C3.94267 12.1874 4.24188 12.3344 4.53842 12.486C4.70731 12.1425 4.82977 11.7819 4.90579 11.4138C5.25535 11.258 5.49902 10.9074 5.49902 10.5C5.49902 10.1299 5.29792 9.80669 4.99902 9.63378V9.20394C5.77996 9.54515 6.54492 9.91618 7.29248 10.3156C7.7342 10.5516 8.26455 10.5516 8.70627 10.3156Z" fill="#9CA3AF"/>
<path d="M2.97384 12.9749C3.25326 12.6954 3.4757 12.3807 3.64087 12.045C3.94267 12.1874 4.24188 12.3344 4.53842 12.486C4.32605 12.9179 4.04012 13.3228 3.68095 13.682C3.48568 13.8772 3.1691 13.8772 2.97384 13.682C2.77858 13.4867 2.77858 13.1701 2.97384 12.9749Z" fill="#9CA3AF"/>
</svg>
