<svg viewBox="0 0 20 20" id="svg12162099738"><path d="M 7.5 4.583 L 9.117 2.967 C 9.605 2.479 10.395 2.479 10.883 2.967 L 12.5 4.583 M 4.583 7.5 L 2.967 9.117 C 2.479 9.605 2.479 10.395 2.967 10.883 L 4.583 12.5 M 15.417 7.5 L 17.033 9.117 C 17.521 9.605 17.521 10.395 17.033 10.883 L 15.417 12.5 M 12.5 15.417 L 10.883 17.033 C 10.395 17.521 9.605 17.521 9.117 17.033 L 7.5 15.417 M 10 3.333 L 10 10 M 10 10 L 10 16.667 M 10 10 L 3.333 10 M 10 10 L 16.667 10" fill="transparent" stroke-width="1.5" stroke="var(--token-904c14a9-7582-43d7-a43c-85f49d580145, rgb(150, 150, 150)) /* {&quot;name&quot;:&quot;Dark / 50&quot;} */" stroke-linecap="round" stroke-linejoin="round" stroke-dasharray=""></path></svg>