<svg width="32" height="32" viewBox="0 0 32 32" fill="none" xmlns="http://www.w3.org/2000/svg">

<path d="M 21.61 1.15 C 21.73 2.30 21.55 3.46 21.07 4.52 C 20.59 5.57 19.84 6.48 18.89 7.15 C 17.98 7.85 16.86 8.21 15.71 8.15 C 15.12 3.69 19.24 1.35 21.61 1.15 ZM 10.61 7.80 C 11.74 7.78 12.85 8.02 13.87 8.51 C 14.60 8.94 15.42 9.20 16.27 9.26 C 16.90 9.26 17.53 9.14 18.11 8.89 C 19.37 8.29 20.72 7.92 22.11 7.80 C 23.20 7.85 24.26 8.15 25.21 8.67 C 26.17 9.19 26.99 9.92 27.63 10.80 L 27.88 11.14 C 27.04 11.67 26.29 12.34 25.69 13.14 C 24.93 14.22 24.52 15.51 24.51 16.83 C 24.49 17.99 24.77 19.13 25.33 20.14 C 26.12 21.44 27.33 22.44 28.76 22.96 C 27.40 26.27 24.39 30.85 21.63 30.85 C 20.84 30.87 20.05 30.67 19.36 30.27 C 17.87 29.57 16.17 29.46 14.59 29.95 C 14.02 30.14 13.47 30.37 12.93 30.55 C 12.40 30.76 11.83 30.86 11.26 30.85 C 10.50 30.79 9.78 30.50 9.19 30.02 C 6.25 27.91 3.24 22.02 3.24 16.88 C 3.19 14.73 3.83 12.63 5.07 10.88 C 6.14 9.51 8.19 7.80 10.61 7.80 Z" fill="currentColor" part="base-color"></path>
</svg>